<svg width="80" height="9" viewBox="0 0 80 9" fill="none" xmlns="http://www.w3.org/2000/svg">
<path d="M1.404 5.4V4.128H4.956C5.38 4.128 5.716 4.016 5.964 3.792C6.212 3.56 6.336 3.24 6.336 2.832C6.336 2.408 6.212 2.084 5.964 1.86C5.716 1.636 5.38 1.524 4.956 1.524H1.596V7.92H0V0.156H4.812C5.244 0.156 5.648 0.208 6.024 0.312C6.408 0.416 6.74 0.576 7.02 0.792C7.308 1.008 7.532 1.284 7.692 1.62C7.852 1.956 7.932 2.36 7.932 2.832C7.932 3.296 7.852 3.692 7.692 4.02C7.532 4.348 7.308 4.616 7.02 4.824C6.74 5.024 6.408 5.172 6.024 5.268C5.648 5.356 5.244 5.4 4.812 5.4H1.404Z" fill="white"/>
<path d="M13.9398 8.076C12.9078 8.076 12.0238 7.916 11.2878 7.596C10.5598 7.268 9.99978 6.804 9.60778 6.204C9.22378 5.604 9.03178 4.884 9.03178 4.044C9.03178 3.196 9.22378 2.472 9.60778 1.872C9.99978 1.272 10.5598 0.812 11.2878 0.492C12.0238 0.164 12.9078 0 13.9398 0C14.9798 0 15.8638 0.164 16.5918 0.492C17.3198 0.812 17.8758 1.272 18.2598 1.872C18.6518 2.472 18.8478 3.196 18.8478 4.044C18.8478 4.884 18.6518 5.604 18.2598 6.204C17.8758 6.804 17.3198 7.268 16.5918 7.596C15.8638 7.916 14.9798 8.076 13.9398 8.076ZM13.9398 6.696C14.5798 6.696 15.1398 6.6 15.6198 6.408C16.1078 6.216 16.4878 5.924 16.7598 5.532C17.0398 5.14 17.1798 4.644 17.1798 4.044C17.1798 3.444 17.0398 2.948 16.7598 2.556C16.4878 2.164 16.1078 1.872 15.6198 1.68C15.1398 1.48 14.5798 1.38 13.9398 1.38C13.3078 1.38 12.7438 1.48 12.2478 1.68C11.7518 1.872 11.3638 2.164 11.0838 2.556C10.8038 2.948 10.6638 3.444 10.6638 4.044C10.6638 4.644 10.8038 5.14 11.0838 5.532C11.3638 5.924 11.7518 6.216 12.2478 6.408C12.7438 6.6 13.3078 6.696 13.9398 6.696Z" fill="white"/>
<path d="M22.649 7.92L19.373 0.156H21.137L23.909 7.032L23.393 7.044L26.033 0.156H27.869L30.509 7.044L29.993 7.032L32.765 0.156H34.493L31.253 7.92H29.297L26.705 1.188H27.209L24.605 7.92H22.649Z" fill="white"/>
<path d="M37.3706 4.68V6.588H43.3586V7.92H35.7746V0.156H43.3466V1.488H37.3706V3.42H42.2666V4.68H37.3706Z" fill="white"/>
<path d="M45.1173 7.92V0.156H50.3853C50.9853 0.156 51.5053 0.24 51.9453 0.408C52.3933 0.568 52.7413 0.824 52.9893 1.176C53.2373 1.52 53.3613 1.964 53.3613 2.508C53.3613 2.876 53.2973 3.188 53.1693 3.444C53.0413 3.7 52.8613 3.908 52.6293 4.068C52.4053 4.228 52.1453 4.352 51.8493 4.44C51.5533 4.52 51.2373 4.572 50.9013 4.596L50.7333 4.5C51.2933 4.508 51.7533 4.556 52.1133 4.644C52.4733 4.724 52.7413 4.876 52.9173 5.1C53.1013 5.316 53.1933 5.64 53.1933 6.072V7.92H51.5973V6.18C51.5973 5.884 51.5453 5.656 51.4413 5.496C51.3373 5.328 51.1493 5.212 50.8773 5.148C50.6133 5.084 50.2293 5.052 49.7253 5.052H46.7133V7.92H45.1173ZM46.7133 3.804H50.3853C50.8333 3.804 51.1733 3.696 51.4053 3.48C51.6453 3.264 51.7653 2.972 51.7653 2.604C51.7653 2.252 51.6453 1.984 51.4053 1.8C51.1733 1.616 50.8333 1.524 50.3853 1.524H46.7133V3.804Z" fill="white"/>
<path d="M56.7593 6.552V7.92H54.9473V6.552H56.7593Z" fill="#FF6900"/>
<path d="M66.1012 0.156V1.488H60.1252V3.576H65.0212V4.824H60.1252V7.92H58.5292V0.156H66.1012Z" fill="white"/>
<path d="M67.7717 0.156H69.3677V7.92H67.7717V0.156Z" fill="white"/>
<path d="M70.8703 0.156H79.0543V1.488H70.8703V0.156ZM74.1703 1.32H75.7663V7.92H74.1703V1.32Z" fill="white"/>
</svg>
