<svg width="80" height="9" viewBox="0 0 80 9" fill="none" xmlns="http://www.w3.org/2000/svg">
<g clip-path="url(#clip0_7035_12)">
<path d="M1.404 5.40001V4.12801H4.956C5.38 4.12801 5.716 4.01601 5.964 3.79201C6.212 3.56001 6.336 3.24001 6.336 2.83201C6.336 2.40801 6.212 2.08401 5.964 1.86001C5.716 1.63601 5.38 1.52401 4.956 1.52401H1.596V7.92001H0V0.156006H4.812C5.244 0.156006 5.648 0.208006 6.024 0.312006C6.408 0.416006 6.74 0.576006 7.02 0.792006C7.308 1.00801 7.532 1.28401 7.692 1.62001C7.852 1.95601 7.932 2.36001 7.932 2.83201C7.932 3.29601 7.852 3.69201 7.692 4.02001C7.532 4.34801 7.308 4.61601 7.02 4.82401C6.74 5.02401 6.408 5.17201 6.024 5.26801C5.648 5.35601 5.244 5.40001 4.812 5.40001H1.404Z" fill="#181818"/>
<path d="M13.9398 8.076C12.9078 8.076 12.0238 7.916 11.2878 7.596C10.5598 7.268 9.99974 6.804 9.60774 6.204C9.22374 5.604 9.03174 4.884 9.03174 4.044C9.03174 3.196 9.22374 2.472 9.60774 1.872C9.99974 1.272 10.5598 0.812 11.2878 0.492C12.0238 0.164 12.9078 0 13.9398 0C14.9798 0 15.8638 0.164 16.5918 0.492C17.3198 0.812 17.8758 1.272 18.2598 1.872C18.6518 2.472 18.8478 3.196 18.8478 4.044C18.8478 4.884 18.6518 5.604 18.2598 6.204C17.8758 6.804 17.3198 7.268 16.5918 7.596C15.8638 7.916 14.9798 8.076 13.9398 8.076ZM13.9398 6.696C14.5798 6.696 15.1398 6.6 15.6198 6.408C16.1078 6.216 16.4878 5.924 16.7598 5.532C17.0398 5.14 17.1798 4.644 17.1798 4.044C17.1798 3.444 17.0398 2.948 16.7598 2.556C16.4878 2.164 16.1078 1.872 15.6198 1.68C15.1398 1.48 14.5798 1.38 13.9398 1.38C13.3078 1.38 12.7438 1.48 12.2478 1.68C11.7518 1.872 11.3638 2.164 11.0838 2.556C10.8038 2.948 10.6638 3.444 10.6638 4.044C10.6638 4.644 10.8038 5.14 11.0838 5.532C11.3638 5.924 11.7518 6.216 12.2478 6.408C12.7438 6.6 13.3078 6.696 13.9398 6.696Z" fill="#181818"/>
<path d="M22.649 7.92001L19.373 0.156006H21.137L23.909 7.03201L23.393 7.04401L26.033 0.156006H27.869L30.509 7.04401L29.993 7.03201L32.765 0.156006H34.493L31.253 7.92001H29.297L26.705 1.18801H27.209L24.605 7.92001H22.649Z" fill="#181818"/>
<path d="M37.3707 4.68001V6.58801H43.3587V7.92001H35.7747V0.156006H43.3467V1.48801H37.3707V3.42001H42.2667V4.68001H37.3707Z" fill="#181818"/>
<path d="M45.1173 7.92001V0.156006H50.3853C50.9853 0.156006 51.5053 0.240006 51.9453 0.408006C52.3933 0.568006 52.7413 0.824006 52.9893 1.17601C53.2373 1.52001 53.3613 1.96401 53.3613 2.50801C53.3613 2.87601 53.2973 3.18801 53.1693 3.44401C53.0413 3.70001 52.8613 3.90801 52.6293 4.06801C52.4053 4.22801 52.1453 4.35201 51.8493 4.44001C51.5533 4.52001 51.2373 4.57201 50.9013 4.59601L50.7333 4.50001C51.2933 4.50801 51.7533 4.55601 52.1133 4.64401C52.4733 4.72401 52.7413 4.87601 52.9173 5.10001C53.1013 5.31601 53.1933 5.64001 53.1933 6.07201V7.92001H51.5973V6.18001C51.5973 5.88401 51.5453 5.65601 51.4413 5.49601C51.3373 5.32801 51.1493 5.21201 50.8773 5.14801C50.6133 5.08401 50.2293 5.05201 49.7253 5.05201H46.7133V7.92001H45.1173ZM46.7133 3.80401H50.3853C50.8333 3.80401 51.1733 3.69601 51.4053 3.48001C51.6453 3.26401 51.7653 2.97201 51.7653 2.60401C51.7653 2.25201 51.6453 1.98401 51.4053 1.80001C51.1733 1.61601 50.8333 1.52401 50.3853 1.52401H46.7133V3.80401Z" fill="#181818"/>
<path d="M56.7593 6.552V7.92H54.9473V6.552H56.7593Z" fill="#FF6900"/>
<path d="M66.1012 0.156006V1.48801H60.1252V3.57601H65.0212V4.82401H60.1252V7.92001H58.5292V0.156006H66.1012Z" fill="#181818"/>
<path d="M67.7717 0.156006H69.3677V7.92001H67.7717V0.156006Z" fill="#181818"/>
<path d="M70.8704 0.156006H79.0544V1.48801H70.8704V0.156006ZM74.1704 1.32001H75.7664V7.92001H74.1704V1.32001Z" fill="#181818"/>
</g>
<defs>
<clipPath id="clip0_7035_12">
<rect width="80" height="9" fill="white"/>
</clipPath>
</defs>
</svg>
